Coordinates
version=1
nRows=12
nColumns=28
inDegrees=yes

Units are S.I. units (second, meters, Newtons, ...)
If the header above contains a line with 'inDegrees', this indicates whether rotational values are in degrees (yes) or radians (no).

endheader
time	pelvis_tilt	pelvis_list	pelvis_rotation	pelvis_tx	pelvis_ty	pelvis_tz	hip_flexion_r	hip_adduction_r	hip_rotation_r	knee_angle_r	knee_rotation_r	knee_adduction_r	ankle_angle_r	subtalar_angle_r	mtp_angle_r	hip_flexion_l	hip_adduction_l	hip_rotation_l	knee_angle_l	knee_rotation_l	knee_adduction_l	ankle_angle_l	subtalar_angle_l	mtp_angle_l	lumbar_extension	lumbar_bending	lumbar_rotation
      0.60000000	     13.04884222	      6.50684080	    -84.45146108	     -0.20069961	      0.96487439	     -0.17968868	     34.56135432	    -18.78691990	     14.11619764	    -23.97673424	    -14.54989201	      9.05771937	      2.08449147	    -14.27198504	    -12.55798194	      4.84568098	     14.80307827	     11.72828728	    -14.56173227	     10.88346065	     -4.22191770	     22.66113177	      2.86519058	     -2.28368063	      0.00000000	      0.00000000	      0.00000000
      0.61000000	     12.83734007	      6.87344404	    -84.31552186	     -0.20110321	      0.96312419	     -0.16759481	     33.74082454	    -18.24417610	     14.06158317	    -19.20561461	    -16.90129322	      7.48436258	      2.67236565	    -12.48026145	    -11.91932619	      4.61225919	     14.40154502	     11.52648373	    -14.95258444	     10.65252911	     -4.40442960	     23.62020773	      3.47337185	     -2.22388118	      0.00000000	      0.00000000	      0.00000000
      0.62000000	     12.75737140	      7.04546456	    -84.19777556	     -0.20154921	      0.96139900	     -0.15561199	     32.83162315	    -17.86440587	     14.16174945	    -14.67434524	    -19.33291523	      5.99961128	      3.14507022	    -10.32565006	    -11.26523944	      4.14877434	     14.12725805	     11.53837182	    -15.27792480	     10.67098127	     -4.61449353	     24.36422147	      3.93789241	     -2.16439933	      0.00000000	      0.00000000	      0.00000000
      0.63000000	     12.69682778	      7.23206756	    -84.07411214	     -0.20198255	      0.95952512	     -0.14347826	     31.99161036	    -17.55355450	     14.34268112	    -10.40905607	    -21.45010722	      4.59149851	      3.48470149	     -8.45041640	    -10.64590064	      3.71374509	     13.88301288	     11.55593200	    -15.64588704	     10.66856515	     -4.81114874	     25.08438141	      4.34482521	     -2.12078677	      0.00000000	      0.00000000	      0.00000000
      0.64000000	     12.65060772	      7.62280231	    -83.95252656	     -0.20238823	      0.95730582	     -0.13112392	     31.43375709	    -17.32134756	     14.69743226	     -6.52039923	    -23.15060841	      3.32743578	      3.38879055	     -7.36891691	    -10.54074690	      3.49077525	     13.67331798	     11.67216020	    -16.02975095	     10.63330537	     -5.03556523	     25.74041843	      4.45338396	     -2.12995714	      0.00000000	      0.00000000	      0.00000000
      0.65000000	     12.61814091	      7.61376913	    -83.77792784	     -0.20276188	      0.95549782	     -0.11887581	     30.67277920	    -17.14060235	     14.84336230	     -3.41101183	    -24.62160939	      2.24949268	      3.87799007	     -5.75812911	    -10.19561873	      2.91567572	     13.47722274	     11.66578361	    -16.54982408	     10.61913597	     -5.14922900	     26.43930775	      5.05356814	     -2.15955525	      0.00000000	      0.00000000	      0.00000000
      0.66000000	     12.56734576	      7.89385453	    -83.60609075	     -0.20313669	      0.95333301	     -0.10641824	     30.35335761	    -16.98863608	     15.15388339	     -0.93424126	    -25.56622032	      1.39969991	      3.92102119	     -5.22055429	    -10.13650091	      2.65142175	     13.27767740	     11.79777799	    -17.09372744	     10.50613977	     -5.32605607	     27.03050152	      5.11329872	     -2.18820075	      0.00000000	      0.00000000	      0.00000000
      0.67000000	     12.46613758	      7.95576497	    -83.39439735	     -0.20350521	      0.95149028	     -0.09393308	     30.00993101	    -16.79555441	     15.28056047	      0.69707501	    -26.04815960	      0.78727210	      4.21947155	     -4.81556143	     -9.94114535	      2.21834183	     13.01949220	     11.86541832	    -17.74081458	     10.43361188	     -5.44079430	     27.58681226	      5.54527237	     -2.27727912	      0.00000000	      0.00000000	      0.00000000
      0.68000000	     12.37366708	      8.11209696	    -83.23142859	     -0.20402266	      0.94956544	     -0.08136977	     30.01720719	    -16.59312762	     15.52094685	      1.46460885	    -26.16592455	      0.45226343	      4.52572780	     -4.90288294	     -9.91659992	      1.91167829	     12.75473527	     12.00702224	    -18.41518222	     10.29390925	     -5.62427148	     27.91961611	      5.55213228	     -2.29918136	      0.00000000	      0.00000000	      0.00000000
      0.69000000	     12.11761452	      8.20558416	    -82.89875098	     -0.20426927	      0.94792539	     -0.06864071	     30.00602469	    -16.31367317	     15.41080595	      1.58281300	    -25.54483094	      0.34635906	      4.50075463	     -5.93962448	     -9.67316804	      1.63312509	     12.35069062	     12.15612061	    -19.27959242	     10.11062122	     -5.71976363	     28.40633644	      5.92339979	     -2.44745034	      0.00000000	      0.00000000	      0.00000000
      0.70000000	     11.88110100	      8.30187729	    -82.63696991	     -0.20467125	      0.94635055	     -0.05583201	     30.26143048	    -16.01314523	     15.32982592	      0.87314856	    -24.63381540	      0.49379330	      4.54783760	     -7.10428323	     -9.45617474	      1.40695769	     11.95055356	     12.29472316	    -20.19646201	      9.86142419	     -5.85062389	     28.64248582	      5.97480479	     -2.54853581	      0.00000000	      0.00000000	      0.00000000
      0.71000000	     11.58526903	      8.36984010	    -82.34350363	     -0.20518624	      0.94494428	     -0.04299027	     30.64163705	    -15.64133992	     15.17577962	     -0.44578867	    -23.49091393	      0.79507910	      4.54086156	     -8.52742243	     -9.21196357	      1.25133403	     11.45529751	     12.45355959	    -21.25605222	      9.59428091	     -6.03897783	     28.73263134	      5.99398773	     -2.60759177	      0.00000000	      0.00000000	      0.00000000
